<?xml version="1.0" encoding="UTF-8"?>
<!DOCTYPE svg PUBLIC "-//W3C//DTD SVG 1.1//EN" "http://www.w3.org/Graphics/SVG/1.1/DTD/svg11.dtd">
<svg id="cloure-svg" version="1.1" xmlns="http://www.w3.org/2000/svg" xmlns:xlink="http://www.w3.org/1999/xlink" x="0px" y="0px" viewBox="0 0 512 126" style="enable-background:new 0 0 512 126.1;" xml:space="preserve">
    <style type="text/css">
        .st0{fill-rule:evenodd;clip-rule:evenodd;fill:#009BD8;}
        .st1{fill:#FFF;}
    </style>
    <path id="XMLID_2_" class="st0" d="M92.6,30.8c-8.4,1.9-18.5,10.2-18.9,21.1c-8.8-2.5-16.4-2.9-23,0.7c-7.3,3.9-11.9,11.9-12,22.2
        c0,0.1,0,0.1,0,0.2c0.1,2.1,0.3,8.4,3.9,14.5c3.6,6,11,11.5,23.3,11.9c0,0,0,0,0.1,0c10.4,0.1,18.2-3.5,23.8-8.6
        c5.6-5.1,9.2-11.3,12.7-16.8c6.5-10.2,12-15.1,16.6-17.5c4.5-2.4,8.4-2.5,12.8-2.6c13,0.4,19,9.7,19,19.4
        c-0.8,11.5-5.3,16.1-10.9,17.9c-5.6,1.9-12.9,0.4-17.6-2.5c-4.3-3.1-8.6,3.8-3.9,6.3c6.5,4,15.6,6,23.9,3.2
        c8.3-2.8,15.1-10.9,16.1-24.6c0-0.1,0-0.1,0-0.2c0.1-13.1-9.5-26.6-26.4-27.1c-0.1,0-0.1,0-0.2,0c-4.6,0.1-10.2,0.3-16.3,3.5
        c-6.1,3.2-12.4,9.3-19.3,20.2c-3.5,5.6-7,11.2-11.4,15.2c-4.5,4-9.9,6.7-18.6,6.7c-10.4-0.3-14.7-4.2-17.2-8.3
        c-2.4-4.1-2.7-8.6-2.8-10.8c0.1-8.3,3.2-13.1,8-15.7c4.9-2.6,12.2-2.9,20.6-0.1c2.1,0.7,4.4-0.6,4.8-2.8
        c2.1-11.5,8.1-16.7,14.6-18.2c6.5-1.5,13.8,1.1,18.7,7.3c3,4.1,9.1-0.6,5.9-4.6C112.3,32.4,102.1,28.6,92.6,30.8z"/>
    <path id="XMLID_82_" class="st1" d="M245.5,45.9l-5.2,3.9c-2.8-3.7-6.2-6.5-10.2-8.4c-4-1.9-8.4-2.9-13.1-2.9
        c-5.2,0-10.1,1.3-14.5,3.8c-4.4,2.5-7.9,5.9-10.4,10.1c-2.5,4.2-3.7,9-3.7,14.3c0,8,2.7,14.4,8.2,19.3c5.5,4.9,12.4,7.3,20.7,7.3
        c9.2,0,16.9-3.6,23-10.8l5.2,3.9c-3.3,4.2-7.4,7.4-12.2,9.6c-4.9,2.3-10.3,3.4-16.4,3.4c-11.5,0-20.5-3.8-27.2-11.4
        c-5.5-6.5-8.3-13.8-8.3-21.9c0-9.6,3.4-17.6,10.1-24.2c6.7-6.6,15.2-9.9,25.3-9.9c6.1,0,11.7,1.2,16.6,3.6
        C238.3,38.1,242.4,41.5,245.5,45.9z"/>
    <path id="XMLID_84_" class="st1" d="M256.6,31.7h6.3v67.2h-6.3V31.7z"/>
    <path id="XMLID_86_" class="st1" d="M298.7,48.1c7.5,0,13.6,2.7,18.6,8.1c4.4,4.9,6.7,10.8,6.7,17.5c0,6.7-2.4,12.6-7.1,17.7
        c-4.7,5.1-10.8,7.6-18.2,7.6c-7.4,0-13.5-2.5-18.2-7.6s-7-11-7-17.7c0-6.7,2.2-12.6,6.7-17.5C285,50.8,291.2,48.1,298.7,48.1z
        M298.7,54.2c-5.2,0-9.6,1.9-13.3,5.7c-3.7,3.8-5.6,8.5-5.6,13.9c0,3.5,0.8,6.8,2.5,9.8c1.7,3,4,5.4,6.9,7c2.9,1.6,6,2.5,9.5,2.5
        c3.5,0,6.7-0.8,9.5-2.5c2.9-1.6,5.1-4,6.8-7c1.7-3,2.5-6.3,2.5-9.8c0-5.4-1.9-10-5.6-13.9C308.3,56.1,303.8,54.2,298.7,54.2z"/>
    <path id="XMLID_89_" class="st1" d="M334.6,49.3h6.3v22.6c0,5.5,0.3,9.3,0.9,11.4c0.9,3,2.6,5.3,5.1,7s5.5,2.6,9,2.6
        c3.5,0,6.4-0.8,8.8-2.5c2.4-1.7,4.1-3.9,5-6.6c0.6-1.9,1-5.8,1-11.9V49.3h6.4v23.8c0,6.7-0.8,11.7-2.4,15.1c-1.6,3.4-3.9,6-7,7.9
        c-3.1,1.9-7,2.9-11.8,2.9c-4.7,0-8.7-1-11.8-2.9s-5.5-4.6-7.1-8c-1.6-3.4-2.3-8.6-2.3-15.5V49.3z"/>
    <path id="XMLID_91_" class="st1" d="M388.4,76.8v-5.8c0.5-2.9,1.1-5.3,2-7.1c2.1-5.1,4.8-8.8,8.3-11.1c3.5-2.4,6.4-3.5,8.7-3.5
        c1.7,0,3.5,0.6,5.5,1.7l-3.2,5.2c-2.7-1-5.5-0.2-8.2,2.4c-2.7,2.6-4.6,5.5-5.6,8.6c-0.8,2.7-1.1,7.9-1.1,15.4v16.4h-6.4V76.8z"/>
    <path id="XMLID_93_" class="st1" d="M457.3,81.7l5.2,2.8c-1.7,3.4-3.7,6.1-5.9,8.2c-2.3,2.1-4.8,3.6-7.6,4.7
        c-2.8,1.1-6,1.6-9.6,1.6c-7.9,0-14.1-2.6-18.5-7.8c-4.4-5.2-6.7-11-6.7-17.5c0-6.2,1.9-11.6,5.7-16.4c4.8-6.1,11.2-9.2,19.2-9.2
        c8.2,0,14.8,3.1,19.8,9.4c3.5,4.4,5.3,9.9,5.3,16.5h-43.5c0.1,5.7,1.9,10.3,5.4,13.9s7.8,5.4,12.9,5.4c2.5,0,4.9-0.4,7.2-1.3
        c2.3-0.9,4.3-2,5.9-3.4C453.6,87.2,455.4,84.9,457.3,81.7z M457.3,68.7c-0.8-3.3-2-6-3.6-8c-1.6-2-3.7-3.6-6.3-4.8
        c-2.6-1.2-5.4-1.8-8.3-1.8c-4.7,0-8.8,1.5-12.2,4.6c-2.5,2.2-4.3,5.6-5.6,10H457.3z"/>
</svg>